<?xml version="1.0" encoding="utf-8"?>
<!-- Generator: Adobe Illustrator 28.0.0, SVG Export Plug-In . SVG Version: 6.00 Build 0)  -->
<svg version="1.1" id="Layer_1" xmlns="http://www.w3.org/2000/svg" xmlns:xlink="http://www.w3.org/1999/xlink" x="0px" y="0px"
	 viewBox="0 0 1623.3 436.7"
	 fill="#000"
	  style="enable-background:new 0 0 1623.3 436.7;" xml:space="preserve">
<path d="M215.8,297.4c0,14.8-3.2,26.9-9.5,36.4c-6.4,9.5-14.7,16.9-25,22.2c-10.3,5.3-22,9-35.1,11.1c-13.1,2.1-26.1,3.1-39.2,3.1
	c-6.9,0-14.4-0.5-22.4-1.5c-8.1-1-16.3-2.3-24.8-3.9c-8.4-1.5-16.7-3.4-24.8-5.4c-8.1-2.1-15.6-4.1-22.4-6.2l24.2-57.8
	c12.7,4.5,24.4,9.1,35.1,13.9c10.7,4.8,22.7,7.2,36.1,7.2c8.6,0,15.2-0.5,19.8-1.5c4.6-1,8.2-2.4,10.6-4.1c2.4-1.7,3.9-3.6,4.4-5.7
	c0.5-2.1,0.8-4,0.8-5.7v-1.5c0-4.1-3.1-7.4-9.3-9.8c-6.2-2.4-13.9-4.8-23.2-7.2c-9.3-2.4-19.3-5.3-29.9-8.8
	c-10.7-3.4-20.6-8.4-29.9-15c-9.3-6.5-17-15.1-23.2-25.8c-6.2-10.6-9.3-24.2-9.3-40.7c0-15.1,3.1-27.3,9.3-36.6s14.3-16.5,24.2-21.7
	s21.2-8.7,33.8-10.6c12.6-1.9,25.2-2.8,37.9-2.8c10.3,0,22.9,1.2,37.6,3.6c14.8,2.4,30.4,6,46.9,10.8l-23.7,57.2
	c-12-5.5-22.4-9.9-30.9-13.1c-8.6-3.3-18.4-4.9-29.4-4.9c-12.4,0-21.1,1.3-26,3.9c-5,2.6-7.5,6.8-7.5,12.6c0,5.9,3.1,10.4,9.3,13.7
	c6.2,3.3,13.9,6.3,23.2,9c9.3,2.8,19.2,5.9,29.9,9.5c10.6,3.6,20.6,8.5,29.9,14.7s17,14.1,23.2,23.7
	C212.8,269.4,215.8,281.9,215.8,297.4z"/>
<path d="M252.4,84.4V28.8h73.2v55.7H252.4z M254,362.4V126.7h70.1v235.6H254z"/>
<path d="M375.2,362.4V23.6h70.6v338.8H375.2z"/>
<path d="M729.4,243.3c0,16.8-2.2,32.9-6.7,48.2c-4.5,15.3-11.6,28.8-21.4,40.5c-9.8,11.7-22.4,21-37.9,27.9
	c-15.5,6.9-34.2,10.3-56.2,10.3s-40.8-3.4-56.5-10.3c-15.7-6.9-28.4-16.1-38.2-27.6c-9.8-11.5-16.9-24.9-21.4-40.2
	c-4.5-15.3-6.7-31.5-6.7-48.7c0-16.5,2.3-32.2,7-47.2c4.6-14.9,11.9-28.1,21.7-39.4c9.8-11.3,22.4-20.4,37.9-27.3
	c15.5-6.9,34.2-10.3,56.2-10.3c22.3,0,41.2,3.3,56.7,9.8c15.5,6.5,28.1,15.4,37.9,26.6c9.8,11.2,16.8,24.3,21.1,39.4
	C727.3,209.9,729.4,226.1,729.4,243.3z M657.2,243.3c0-14.4-1.1-26.2-3.3-35.3c-2.2-9.1-5.4-16.3-9.5-21.7
	c-4.1-5.3-9.3-8.9-15.5-10.8c-6.2-1.9-13.4-2.8-21.7-2.8c-7.9,0-15,0.9-21.1,2.8s-11.4,5.5-15.7,10.8s-7.7,12.6-10,21.7
	c-2.4,9.1-3.6,20.9-3.6,35.3c0,25.8,4.4,44.4,13.2,56c8.8,11.5,21.2,17.3,37.4,17.3c6.9,0,13.3-1.1,19.3-3.4c6-2.2,11.3-6.2,16-11.9
	c4.6-5.7,8.2-13.1,10.8-22.4C655.9,269.5,657.2,257.7,657.2,243.3z"/>
<path d="M956.8,297.4c0,14.8-3.2,26.9-9.5,36.4c-6.4,9.5-14.7,16.9-25,22.2c-10.3,5.3-22,9-35.1,11.1c-13.1,2.1-26.1,3.1-39.2,3.1
	c-6.9,0-14.4-0.5-22.4-1.5c-8.1-1-16.3-2.3-24.8-3.9c-8.4-1.5-16.7-3.4-24.8-5.4c-8.1-2.1-15.6-4.1-22.4-6.2l24.2-57.8
	c12.7,4.5,24.4,9.1,35.1,13.9c10.7,4.8,22.7,7.2,36.1,7.2c8.6,0,15.2-0.5,19.8-1.5c4.6-1,8.2-2.4,10.6-4.1c2.4-1.7,3.9-3.6,4.4-5.7
	c0.5-2.1,0.8-4,0.8-5.7v-1.5c0-4.1-3.1-7.4-9.3-9.8c-6.2-2.4-13.9-4.8-23.2-7.2c-9.3-2.4-19.3-5.3-29.9-8.8
	c-10.7-3.4-20.6-8.4-29.9-15c-9.3-6.5-17-15.1-23.2-25.8c-6.2-10.6-9.3-24.2-9.3-40.7c0-15.1,3.1-27.3,9.3-36.6s14.3-16.5,24.2-21.7
	c10-5.2,21.2-8.7,33.8-10.6c12.5-1.9,25.2-2.8,37.9-2.8c10.3,0,22.9,1.2,37.6,3.6c14.8,2.4,30.4,6,46.9,10.8l-23.7,57.2
	c-12-5.5-22.3-9.9-30.9-13.1c-8.6-3.3-18.4-4.9-29.4-4.9c-12.4,0-21.1,1.3-26,3.9c-5,2.6-7.5,6.8-7.5,12.6c0,5.9,3.1,10.4,9.3,13.7
	c6.2,3.3,13.9,6.3,23.2,9c9.3,2.8,19.2,5.9,29.9,9.5c10.7,3.6,20.6,8.5,29.9,14.7c9.3,6.2,17,14.1,23.2,23.7
	C953.7,269.4,956.8,281.9,956.8,297.4z"/>
<path d="M1183.2,297.4c0,14.8-3.2,26.9-9.5,36.4c-6.4,9.5-14.7,16.9-25,22.2c-10.3,5.3-22,9-35.1,11.1c-13.1,2.1-26.1,3.1-39.2,3.1
	c-6.9,0-14.4-0.5-22.4-1.5c-8.1-1-16.3-2.3-24.8-3.9c-8.4-1.5-16.7-3.4-24.8-5.4c-8.1-2.1-15.6-4.1-22.4-6.2l24.2-57.8
	c12.7,4.5,24.4,9.1,35.1,13.9c10.7,4.8,22.7,7.2,36.1,7.2c8.6,0,15.2-0.5,19.8-1.5c4.6-1,8.2-2.4,10.6-4.1c2.4-1.7,3.9-3.6,4.4-5.7
	c0.5-2.1,0.8-4,0.8-5.7v-1.5c0-4.1-3.1-7.4-9.3-9.8c-6.2-2.4-13.9-4.8-23.2-7.2c-9.3-2.4-19.3-5.3-29.9-8.8
	c-10.7-3.4-20.6-8.4-29.9-15c-9.3-6.5-17-15.1-23.2-25.8c-6.2-10.6-9.3-24.2-9.3-40.7c0-15.1,3.1-27.3,9.3-36.6s14.3-16.5,24.2-21.7
	c10-5.2,21.2-8.7,33.8-10.6c12.5-1.9,25.2-2.8,37.9-2.8c10.3,0,22.9,1.2,37.6,3.6c14.8,2.4,30.4,6,46.9,10.8l-23.7,57.2
	c-12-5.5-22.3-9.9-30.9-13.1c-8.6-3.3-18.4-4.9-29.4-4.9c-12.4,0-21.1,1.3-26,3.9c-5,2.6-7.5,6.8-7.5,12.6c0,5.9,3.1,10.4,9.3,13.7
	c6.2,3.3,13.9,6.3,23.2,9c9.3,2.8,19.2,5.9,29.9,9.5c10.7,3.6,20.6,8.5,29.9,14.7s17,14.1,23.2,23.7
	C1180.1,269.4,1183.2,281.9,1183.2,297.4z"/>
<path d="M1282.7,274.7c3.1,15.8,9.4,26.9,18.8,33.3c9.4,6.4,20.2,9.5,32.2,9.5c10.3,0,21.9-1.8,34.8-5.4
	c12.9-3.6,25.5-8.5,37.9-14.7l23.2,53.6c-14.4,6.5-30.4,11.3-47.9,14.2c-17.5,2.9-34.9,4.4-52.1,4.4c-19.6,0-37-3.4-52.1-10
	c-15.1-6.7-27.8-15.6-37.9-26.8c-10.1-11.2-17.8-24.1-22.9-38.9c-5.2-14.8-7.7-30.4-7.7-46.9c0-13.8,1.8-28.1,5.4-43.1
	c3.6-14.9,9.9-28.7,18.8-41.2c8.9-12.5,20.9-22.9,35.8-30.9c15-8.1,33.9-12.1,57-12.1c22.3,0,41.1,3,56.2,9
	c15.1,6,27.3,15.4,36.6,28.1c9.3,12.7,15.9,28.9,19.8,48.5s5.9,42.8,5.9,69.6L1282.7,274.7L1282.7,274.7z M1374,222.6
	c-1-9.6-2.9-17.6-5.7-24c-2.8-6.4-6.3-11.4-10.6-15.2c-4.3-3.8-9.1-6.4-14.4-7.7c-5.3-1.4-10.9-2.1-16.8-2.1c-2.8,0-6.4,0.4-11.1,1
	c-4.6,0.7-9.3,2.7-13.9,5.9c-4.6,3.3-8.8,8.2-12.4,14.7s-5.6,15.6-5.9,27.3L1374,222.6L1374,222.6z"/>
<path d="M1585.4,419.1c-12.4-4.5-24.2-9.9-35.3-16.2c-11.2-6.4-21-14.1-29.4-23.2c-8.4-9.1-15.2-19.9-20.4-32.2s-7.7-27.1-7.7-44.4
	V180.9H1457v-54.7h35.6V61.8h70.1v64.5h45.4v54.7h-45.4v129.4c0,7.6,0.8,14,2.6,19.3c1.7,5.3,4.6,10,8.5,13.9c3.9,4,9,7.4,15.2,10.3
	c6.2,2.9,13.8,5.6,22.7,8L1585.4,419.1z"/>
</svg>
